<?xml version="1.0" standalone="no"?>
<!DOCTYPE svg PUBLIC "-//W3C//DTD SVG 20010904//EN"
 "http://www.w3.org/TR/2001/REC-SVG-20010904/DTD/svg10.dtd">
<svg version="1.0" xmlns="http://www.w3.org/2000/svg"
 width="301.000000pt" height="298.000000pt" viewBox="0 0 301.000000 298.000000"
 preserveAspectRatio="xMidYMid meet">

<g transform="translate(0.000000,298.000000) scale(0.100000,-0.100000)"
fill="#000000" stroke="none">
<path d="M1016 2090 c-107 -33 -136 -174 -51 -249 65 -57 152 -48 208 22 88
109 -23 269 -157 227z"/>
<path d="M1466 2090 c-65 -20 -112 -94 -101 -160 3 -20 20 -53 36 -73 75 -91
218 -58 250 57 20 71 -29 156 -100 176 -41 11 -46 11 -85 0z"/>
<path d="M1916 2090 c-67 -21 -113 -100 -100 -170 10 -45 70 -106 115 -114 52
-9 107 12 142 57 88 109 -23 269 -157 227z"/>
<path d="M1010 1639 c-40 -16 -80 -60 -91 -101 -27 -103 69 -205 172 -183 45
10 97 60 109 106 31 114 -83 220 -190 178z"/>
<path d="M1466 1640 c-72 -22 -116 -105 -96 -179 20 -76 115 -127 185 -101 68
26 114 104 99 167 -8 33 -47 89 -72 102 -28 15 -85 21 -116 11z"/>
<path d="M1915 1638 c-136 -49 -132 -233 7 -277 77 -25 167 32 183 116 8 42
-26 117 -65 144 -33 23 -88 31 -125 17z"/>
<path d="M1005 1186 c-95 -42 -120 -155 -53 -232 96 -109 279 -20 252 122 -8
46 -58 101 -102 114 -47 13 -60 12 -97 -4z"/>
<path d="M1461 1187 c-19 -6 -48 -29 -65 -50 -76 -95 -8 -233 115 -231 84 1
143 61 143 144 0 101 -99 171 -193 137z"/>
<path d="M1916 1190 c-100 -30 -134 -156 -64 -236 96 -109 279 -20 252 122 -8
46 -58 101 -102 114 -42 11 -47 11 -86 0z"/>
</g>
</svg>
